<?xml version="1.0" standalone="no"?>
<!DOCTYPE svg PUBLIC "-//W3C//DTD SVG 20010904//EN"
 "http://www.w3.org/TR/2001/REC-SVG-20010904/DTD/svg10.dtd">
<svg version="1.0" xmlns="http://www.w3.org/2000/svg"
 viewBox="300.3 320.3 312.5 351.1"
 preserveAspectRatio="xMidYMid meet">
<metadata>
Created by potrace 1.16, written by Peter Selinger 2001-2019
</metadata>
<g transform="translate(0.000000,1024.000000) scale(0.100000,-0.100000)"
fill="#000000" stroke="none">
<path d="M4043 6920 c-12 -5 -27 -19 -34 -32 -7 -13 -24 -169 -40 -378 -15
-195 -33 -413 -38 -485 -16 -196 1 -289 76 -425 49 -89 98 -145 219 -251 190
-165 213 -249 184 -676 -5 -82 -17 -272 -25 -423 -19 -352 -23 -390 -42 -397
-44 -17 -259 55 -388 130 -238 139 -440 376 -534 627 -59 158 -75 250 -76 425
0 123 4 166 23 243 27 108 74 241 104 292 88 148 145 221 246 316 67 63 75 75
83 120 14 86 11 154 -7 154 -55 0 -274 -193 -385 -339 -58 -78 -158 -269 -187
-361 -119 -365 -77 -781 110 -1103 213 -366 548 -610 961 -699 152 -32 438
-32 591 0 268 58 503 183 700 372 132 128 213 238 296 405 109 218 148 408
137 664 -11 259 -77 462 -222 681 -100 150 -361 390 -425 390 -17 0 -20 -6
-19 -47 0 -27 4 -71 8 -100 7 -48 12 -57 81 -120 286 -265 418 -589 389 -953
-16 -202 -67 -366 -163 -524 -161 -264 -404 -457 -701 -554 -88 -29 -139 -36
-152 -20 -10 12 -18 110 -44 538 -5 96 -14 239 -19 317 -19 279 -8 409 43 496
26 44 45 62 193 186 131 109 226 273 245 422 10 74 6 143 -30 574 -31 359 -46
496 -56 512 -19 29 -58 39 -94 23 -50 -20 -55 -47 -42 -267 6 -109 13 -295 17
-413 5 -203 4 -217 -14 -246 -24 -38 -65 -54 -108 -42 -60 15 -61 20 -73 413
-6 198 -13 394 -15 437 -3 94 -22 128 -69 128 -80 -1 -80 0 -73 -476 7 -465 7
-470 -59 -501 -45 -22 -81 -10 -112 36 l-23 34 0 427 c0 417 0 428 -21 454
-26 33 -59 33 -96 2 l-28 -24 -7 -379 c-9 -501 -9 -497 -37 -527 -32 -34 -72
-41 -111 -21 -52 27 -53 42 -41 355 6 157 12 349 14 427 2 137 1 142 -22 167
-25 27 -50 31 -88 16z"/>
</g>
</svg>
